# xmcd
#
# Track frame offsets: 
#        150
#        23498
#        39224
#        47570
#        71103
#        77086
#        98421
#        106482
#        130126
#
# Disc length: 2136 seconds
#
# Revision: 0
# Processed by: cddbd v1.5.2PL0 Copyright (c) Steve Scherf et al.
# Submitted via: ExactAudioCopy v0.99pb5
#
DISCID=64085609
DTITLE=spoelstra - the almighty internet
DYEAR=2010
DGENRE=Electronic
TTITLE0=day of the system
TTITLE1=the almighty internet
TTITLE2=fast downloading in las vegas
TTITLE3=the classic handbuzzer
TTITLE4=click white flag to quit
TTITLE5=apparatus erectus
TTITLE6=sixteen bit stare
TTITLE7=grand theft autotune
TTITLE8=unique visitor
EXTD=
EXTT0=
EXTT1=
EXTT2=
EXTT3=
EXTT4=
EXTT5=
EXTT6=
EXTT7=
EXTT8=
PLAYORDER=
